# xmcd
#
# Track frame offsets: 
#        150
#        21210
#        41265
#        54075
#        63277
#        77774
#        100206
#        118026
#        143218
#        177845
#        197945
#        218225
#        237590
#        244572
#        256512
#        272524
#
# Disc length: 3897 seconds
#
# Revision: 1
# Processed by: cddbd v1.5.2PL0 Copyright (c) Steve Scherf et al.
# Submitted via: ExactAudioCopy v0.99pb5
#
DISCID=d40f3710
DTITLE=Bob Seger - Lookin' Back: The Box [CD4]
DYEAR=2005
DGENRE=Rock
TTITLE0=American Storm [Alternate Take]
TTITLE1=Fat Man in the Bathtub [Live 1996)
TTITLE2=Dark Eyes [Informal Recording 1991-12-16]
TTITLE3=Hey Hey Hey Hey
TTITLE4=Reckless Heart
TTITLE5=Shame on the Moon [Unedited Master]
TTITLE6=The Fat Man
TTITLE7=Lock and Load [Extended Version]
TTITLE8=The Ring [Alternate Extended Version]
TTITLE9=The Long Way Home [Alternate Take]
TTITLE10=Wildfire
TTITLE11=Yesterday Rules [Live 1986-08-11]
TTITLE12=Can Hit The Corners No More [Edited Version]
TTITLE13=A Man Broken (Informal Recording 1991-12-16]
TTITLE14=Carfax Abbey
TTITLE15=The Ring [Instrumental]
EXTD=
EXTT0=
EXTT1=
EXTT2=
EXTT3=
EXTT4=
EXTT5=
EXTT6=
EXTT7=
EXTT8=
EXTT9=
EXTT10=
EXTT11=
EXTT12=
EXTT13=
EXTT14=
EXTT15=
PLAYORDER=
